<?xml version="1.0" standalone="no"?>
<!DOCTYPE svg PUBLIC "-//W3C//DTD SVG 20010904//EN"
 "http://www.w3.org/TR/2001/REC-SVG-20010904/DTD/svg10.dtd">
<svg version="1.0" xmlns="http://www.w3.org/2000/svg"
 width="1280.000000pt" height="853.000000pt" viewBox="0 0 1280.000000 853.000000"
 preserveAspectRatio="xMidYMid meet">

<g transform="translate(0.000000,853.000000) scale(0.100000,-0.100000)"
fill="#000000" stroke="none">
<path d="M5848 7685 c-1241 -169 -2269 -1065 -2608 -2271 -40 -144 -75 -329
-96 -504 -23 -201 -15 -618 15 -804 109 -671 392 -1245 844 -1713 268 -278
534 -471 882 -643 452 -222 874 -320 1385 -320 515 0 933 97 1395 325 323 159
564 332 826 594 227 226 395 449 542 716 409 744 493 1649 230 2470 -288 899
-987 1635 -1873 1972 -202 77 -480 148 -692 178 l-48 6 -40 -63 c-53 -82 -163
-298 -156 -305 3 -3 45 -9 93 -14 524 -51 1033 -260 1453 -595 117 -94 331
-309 426 -429 372 -471 580 -1043 597 -1642 l3 -103 -132 0 -132 0 -6 -107
c-21 -318 -93 -613 -220 -893 -56 -124 -169 -322 -233 -407 l-39 -51 -195 146
c-106 81 -387 293 -623 472 -237 179 -434 328 -439 331 -5 4 12 42 38 86 206
355 145 796 -149 1088 -123 122 -280 205 -455 240 -99 20 -303 16 -387 -8
l-51 -14 -26 81 c-14 44 -105 326 -202 626 -98 300 -214 661 -260 803 l-82
258 24 10 c98 37 368 91 542 109 58 5 106 12 108 14 9 9 -144 377 -156 375 -3
-1 -50 -7 -103 -14z m-447 -234 c17 -18 29 -40 29 -56 0 -36 -41 -75 -80 -75
-39 0 -80 39 -80 75 0 32 50 85 80 85 12 0 35 -13 51 -29z m1859 -6 c33 -35
31 -81 -5 -113 -52 -44 -125 -7 -125 63 0 66 84 99 130 50z m-3335 -1050 c16
-15 25 -36 25 -55 0 -39 -39 -80 -75 -80 -32 0 -85 50 -85 80 0 30 53 80 85
80 14 0 37 -11 50 -25z m4809 4 c20 -16 26 -29 26 -59 0 -30 -6 -43 -26 -59
-15 -12 -37 -21 -49 -21 -12 0 -34 9 -49 21 -20 16 -26 29 -26 59 0 30 6 43
26 59 15 12 37 21 49 21 12 0 34 -9 49 -21z m-4658 -201 c4 -7 4 -10 -1 -6 -4
4 -15 2 -24 -5 -14 -11 -14 -10 -2 6 16 20 18 21 27 5z m447 -330 c133 -100
418 -313 634 -474 l391 -292 -25 -36 c-43 -64 -102 -198 -124 -281 -26 -101
-28 -282 -4 -400 69 -333 336 -607 669 -685 119 -28 297 -29 411 -1 44 11 81
18 82 17 5 -5 573 -1748 573 -1759 0 -15 -248 -79 -421 -107 -677 -110 -1395
45 -1961 423 -216 145 -427 333 -590 527 -183 217 -381 560 -478 830 -97 269
-160 600 -160 850 l0 105 129 -3 128 -3 7 113 c15 244 58 464 132 681 48 141
153 367 224 482 49 80 129 195 136 195 2 0 113 -82 247 -182z m1942 -593 c253
-70 450 -275 516 -535 18 -69 21 -104 17 -199 -9 -202 -71 -344 -213 -486 -91
-91 -175 -144 -290 -182 -72 -25 -94 -27 -225 -27 -131 0 -153 2 -225 27 -115
38 -199 91 -290 182 -91 91 -144 175 -182 290 -24 72 -27 95 -27 225 0 133 2
151 28 225 70 202 197 344 388 435 115 54 198 71 333 65 61 -2 137 -11 170
-20z m-2888 -177 c-3 -8 -6 -5 -6 6 -1 11 2 17 5 13 3 -3 4 -12 1 -19z m-30
-190 c-3 -8 -6 -5 -6 6 -1 11 2 17 5 13 3 -3 4 -12 1 -19z m-10 -90 c-3 -7 -5
-2 -5 12 0 14 2 19 5 13 2 -7 2 -19 0 -25z m-10 -190 c-2 -18 -4 -4 -4 32 0
36 2 50 4 33 2 -18 2 -48 0 -65z m-167 -8 c41 -41 35 -93 -15 -126 -46 -30
-115 11 -115 68 0 64 86 102 130 58z m5938 0 c43 -41 38 -93 -13 -126 -47 -31
-115 9 -115 66 0 66 81 103 128 60z m-301 -412 c-3 -8 -6 -5 -6 6 -1 11 2 17
5 13 3 -3 4 -12 1 -19z m-10 -70 c-3 -8 -6 -5 -6 6 -1 11 2 17 5 13 3 -3 4
-12 1 -19z m-10 -60 c-3 -8 -6 -5 -6 6 -1 11 2 17 5 13 3 -3 4 -12 1 -19z
m-5074 -1170 c52 -27 62 -83 22 -123 -63 -64 -169 16 -121 91 26 39 64 51 99
32z m4840 -20 c40 -47 5 -128 -57 -128 -59 0 -95 66 -65 121 22 42 89 46 122
7z m-3338 -1093 c61 -60 -6 -158 -85 -125 -16 6 -34 24 -40 40 -33 79 65 146
125 85z m1851 2 c20 -17 27 -33 27 -57 0 -39 -40 -80 -79 -80 -35 0 -74 42
-74 80 0 38 39 80 74 80 14 0 37 -11 52 -23z"/>
<path d="M5834 4720 c-12 -5 -29 -19 -38 -32 -38 -54 -5 -108 82 -133 31 -9
63 -22 70 -27 30 -25 -3 -78 -49 -78 -29 0 -49 14 -72 52 -21 34 -47 27 -47
-11 0 -43 40 -74 103 -79 86 -7 137 29 137 96 0 45 -28 70 -105 95 -72 23 -90
42 -65 72 26 31 110 3 110 -36 0 -18 45 -5 48 14 2 9 -10 31 -26 47 -26 25
-38 30 -79 29 -26 0 -58 -4 -69 -9z"/>
<path d="M6092 4722 c-9 -6 -12 -45 -10 -158 3 -136 5 -149 22 -152 26 -5 36
15 36 76 l0 52 60 0 c79 0 110 26 110 93 0 67 -28 88 -127 93 -43 3 -84 1 -91
-4z m139 -52 c12 -7 19 -21 19 -41 0 -33 -27 -49 -81 -49 -28 0 -29 1 -29 50
l0 50 36 0 c19 0 44 -5 55 -10z"/>
<path d="M6376 4715 c-3 -9 -6 -76 -6 -150 0 -105 3 -135 15 -145 8 -7 22 -10
30 -6 13 5 15 28 13 158 -3 147 -4 153 -24 156 -13 2 -24 -4 -28 -13z"/>
<path d="M6515 4708 c-3 -13 -4 -84 -3 -158 3 -123 5 -135 22 -138 29 -6 36
16 36 118 l0 95 72 -108 c63 -95 75 -108 97 -105 l26 3 0 155 c0 152 0 155
-22 158 -29 4 -36 -22 -31 -127 2 -45 1 -81 -2 -81 -3 0 -36 47 -74 105 -55
85 -73 105 -92 105 -16 0 -25 -7 -29 -22z"/>
</g>
</svg>
